<svg id="visual" viewBox="0 0 900 600" width="900" height="600" xmlns="http://www.w3.org/2000/svg" xmlns:xlink="http://www.w3.org/1999/xlink" version="1.1"><rect x="0" y="0" width="900" height="600" fill="#ffffff"></rect><path d="M0 433L21.5 428.2C43 423.3 86 413.7 128.8 413.5C171.7 413.3 214.3 422.7 257.2 427C300 431.3 343 430.7 385.8 417C428.7 403.3 471.3 376.7 514.2 371.5C557 366.3 600 382.7 642.8 391.2C685.7 399.7 728.3 400.3 771.2 396.2C814 392 857 383 878.5 378.5L900 374L900 601L878.5 601C857 601 814 601 771.2 601C728.3 601 685.7 601 642.8 601C600 601 557 601 514.2 601C471.3 601 428.7 601 385.8 601C343 601 300 601 257.2 601C214.3 601 171.7 601 128.8 601C86 601 43 601 21.5 601L0 601Z" fill="#6198ff"></path><path d="M0 447L21.5 440.7C43 434.3 86 421.7 128.8 418.7C171.7 415.7 214.3 422.3 257.2 422.5C300 422.7 343 416.3 385.8 422.5C428.7 428.7 471.3 447.3 514.2 453.7C557 460 600 454 642.8 455.8C685.7 457.7 728.3 467.3 771.2 458.7C814 450 857 423 878.5 409.5L900 396L900 601L878.5 601C857 601 814 601 771.2 601C728.3 601 685.7 601 642.8 601C600 601 557 601 514.2 601C471.3 601 428.7 601 385.8 601C343 601 300 601 257.2 601C214.3 601 171.7 601 128.8 601C86 601 43 601 21.5 601L0 601Z" fill="#3c80ff"></path><path d="M0 450L21.5 453.3C43 456.7 86 463.3 128.8 469.8C171.7 476.3 214.3 482.7 257.2 487.3C300 492 343 495 385.8 488.7C428.7 482.3 471.3 466.7 514.2 461.5C557 456.3 600 461.7 642.8 468.3C685.7 475 728.3 483 771.2 488.5C814 494 857 497 878.5 498.5L900 500L900 601L878.5 601C857 601 814 601 771.2 601C728.3 601 685.7 601 642.8 601C600 601 557 601 514.2 601C471.3 601 428.7 601 385.8 601C343 601 300 601 257.2 601C214.3 601 171.7 601 128.8 601C86 601 43 601 21.5 601L0 601Z" fill="#0066ff"></path><path d="M0 485L21.5 489.5C43 494 86 503 128.8 505.8C171.7 508.7 214.3 505.3 257.2 504C300 502.7 343 503.3 385.8 502.5C428.7 501.7 471.3 499.3 514.2 503.7C557 508 600 519 642.8 519.2C685.7 519.3 728.3 508.7 771.2 506.3C814 504 857 510 878.5 513L900 516L900 601L878.5 601C857 601 814 601 771.2 601C728.3 601 685.7 601 642.8 601C600 601 557 601 514.2 601C471.3 601 428.7 601 385.8 601C343 601 300 601 257.2 601C214.3 601 171.7 601 128.8 601C86 601 43 601 21.5 601L0 601Z" fill="#0059dd"></path><path d="M0 531L21.5 534.7C43 538.3 86 545.7 128.8 548.2C171.7 550.7 214.3 548.3 257.2 546.7C300 545 343 544 385.8 545.7C428.7 547.3 471.3 551.7 514.2 550.3C557 549 600 542 642.8 540.5C685.7 539 728.3 543 771.2 547.8C814 552.7 857 558.3 878.5 561.2L900 564L900 601L878.5 601C857 601 814 601 771.2 601C728.3 601 685.7 601 642.8 601C600 601 557 601 514.2 601C471.3 601 428.7 601 385.8 601C343 601 300 601 257.2 601C214.3 601 171.7 601 128.8 601C86 601 43 601 21.5 601L0 601Z" fill="#004cbb"></path></svg>